<mxfile host="app.diagrams.net" modified="2023-01-06T09:44:07.051Z" agent="5.0 (Windows NT 10.0; Win64; x64) AppleWebKit/537.36 (KHTML, like Gecko) Chrome/108.0.0.0 Safari/537.36" version="20.8.1" etag="9Vgg2vaiJ6jvcyi94F9F" type="github">
  <diagram id="Gdrhe-lr6bihP94jixSr" name="Страница 1">
    <mxGraphModel dx="2021" dy="762" grid="1" gridSize="10" guides="1" tooltips="1" connect="1" arrows="1" fold="1" page="1" pageScale="1" pageWidth="827" pageHeight="1169" math="0" shadow="0">
      <root>
        <mxCell id="0" />
        <mxCell id="1" parent="0" />
        <mxCell id="qsM-RtX6V9E53l7ONpRg-1" value="&quot;interface&quot;&lt;br&gt;Iterable" style="rounded=0;whiteSpace=wrap;html=1;fillColor=#d5e8d4;strokeColor=#82b366;" vertex="1" parent="1">
          <mxGeometry x="360" y="80" width="120" height="40" as="geometry" />
        </mxCell>
        <mxCell id="qsM-RtX6V9E53l7ONpRg-2" value="&quot;interface&quot;&lt;br&gt;Collection" style="rounded=0;whiteSpace=wrap;html=1;fillColor=#d5e8d4;strokeColor=#82b366;" vertex="1" parent="1">
          <mxGeometry x="360" y="200" width="120" height="40" as="geometry" />
        </mxCell>
        <mxCell id="qsM-RtX6V9E53l7ONpRg-3" value="&quot;interface&quot;&lt;br&gt;Queue" style="rounded=0;whiteSpace=wrap;html=1;fillColor=#d5e8d4;strokeColor=#82b366;" vertex="1" parent="1">
          <mxGeometry x="360" y="320" width="120" height="40" as="geometry" />
        </mxCell>
        <mxCell id="qsM-RtX6V9E53l7ONpRg-4" value="&quot;interface&quot;&lt;br&gt;Deque" style="rounded=0;whiteSpace=wrap;html=1;fillColor=#d5e8d4;strokeColor=#82b366;" vertex="1" parent="1">
          <mxGeometry x="360" y="440" width="120" height="40" as="geometry" />
        </mxCell>
        <mxCell id="qsM-RtX6V9E53l7ONpRg-5" value="&quot;interface&quot;&lt;br&gt;List" style="rounded=0;whiteSpace=wrap;html=1;fillColor=#d5e8d4;strokeColor=#82b366;" vertex="1" parent="1">
          <mxGeometry x="160" y="320" width="120" height="40" as="geometry" />
        </mxCell>
        <mxCell id="qsM-RtX6V9E53l7ONpRg-6" value="&quot;interface&quot;&lt;br&gt;Set" style="rounded=0;whiteSpace=wrap;html=1;fillColor=#d5e8d4;strokeColor=#82b366;" vertex="1" parent="1">
          <mxGeometry x="-40" y="320" width="120" height="40" as="geometry" />
        </mxCell>
        <mxCell id="qsM-RtX6V9E53l7ONpRg-7" value="&quot;interface&quot;&lt;br&gt;SortedSet" style="rounded=0;whiteSpace=wrap;html=1;fillColor=#d5e8d4;strokeColor=#82b366;" vertex="1" parent="1">
          <mxGeometry x="-40" y="440" width="120" height="40" as="geometry" />
        </mxCell>
        <mxCell id="qsM-RtX6V9E53l7ONpRg-8" value="&quot;interface&quot;&lt;br&gt;NavigableSet" style="rounded=0;whiteSpace=wrap;html=1;fillColor=#d5e8d4;strokeColor=#82b366;" vertex="1" parent="1">
          <mxGeometry x="-40" y="560" width="120" height="40" as="geometry" />
        </mxCell>
        <mxCell id="qsM-RtX6V9E53l7ONpRg-9" value="AbstractCollection" style="rounded=0;whiteSpace=wrap;html=1;fillColor=#dae8fc;strokeColor=#6c8ebf;" vertex="1" parent="1">
          <mxGeometry x="560" y="320" width="120" height="40" as="geometry" />
        </mxCell>
        <mxCell id="qsM-RtX6V9E53l7ONpRg-10" value="AbstractSet" style="rounded=0;whiteSpace=wrap;html=1;fillColor=#dae8fc;strokeColor=#6c8ebf;" vertex="1" parent="1">
          <mxGeometry x="160" y="440" width="120" height="40" as="geometry" />
        </mxCell>
        <mxCell id="qsM-RtX6V9E53l7ONpRg-11" value="AbstractList" style="rounded=0;whiteSpace=wrap;html=1;fillColor=#dae8fc;strokeColor=#6c8ebf;" vertex="1" parent="1">
          <mxGeometry x="560" y="440" width="120" height="40" as="geometry" />
        </mxCell>
        <mxCell id="qsM-RtX6V9E53l7ONpRg-12" value="AbstractQueue" style="rounded=0;whiteSpace=wrap;html=1;fillColor=#dae8fc;strokeColor=#6c8ebf;" vertex="1" parent="1">
          <mxGeometry x="760" y="440" width="120" height="40" as="geometry" />
        </mxCell>
        <mxCell id="qsM-RtX6V9E53l7ONpRg-13" value="AbstractList" style="rounded=0;whiteSpace=wrap;html=1;fillColor=#dae8fc;strokeColor=#6c8ebf;" vertex="1" parent="1">
          <mxGeometry x="460" y="560" width="120" height="40" as="geometry" />
        </mxCell>
        <mxCell id="qsM-RtX6V9E53l7ONpRg-14" value="&quot;interface&quot;&lt;br&gt;Iterable" style="rounded=0;whiteSpace=wrap;html=1;fillColor=#d5e8d4;strokeColor=#82b366;" vertex="1" parent="1">
          <mxGeometry x="1360" y="320" width="120" height="40" as="geometry" />
        </mxCell>
        <mxCell id="qsM-RtX6V9E53l7ONpRg-15" value="AbstractSet" style="rounded=0;whiteSpace=wrap;html=1;fillColor=#dae8fc;strokeColor=#6c8ebf;" vertex="1" parent="1">
          <mxGeometry x="1160" y="440" width="120" height="40" as="geometry" />
        </mxCell>
        <mxCell id="qsM-RtX6V9E53l7ONpRg-16" value="AbstractSet" style="rounded=0;whiteSpace=wrap;html=1;fillColor=#dae8fc;strokeColor=#6c8ebf;" vertex="1" parent="1">
          <mxGeometry x="1360" y="440" width="120" height="40" as="geometry" />
        </mxCell>
        <mxCell id="qsM-RtX6V9E53l7ONpRg-17" value="AbstractSet" style="rounded=0;whiteSpace=wrap;html=1;fillColor=#dae8fc;strokeColor=#6c8ebf;" vertex="1" parent="1">
          <mxGeometry x="1560" y="440" width="120" height="40" as="geometry" />
        </mxCell>
        <mxCell id="qsM-RtX6V9E53l7ONpRg-18" value="AbstractSet" style="rounded=0;whiteSpace=wrap;html=1;fillColor=#dae8fc;strokeColor=#6c8ebf;" vertex="1" parent="1">
          <mxGeometry x="1560" y="560" width="120" height="40" as="geometry" />
        </mxCell>
        <mxCell id="qsM-RtX6V9E53l7ONpRg-19" value="LinkedHashSet" style="rounded=0;whiteSpace=wrap;html=1;fillColor=#dae8fc;strokeColor=#6c8ebf;gradientColor=#7ea6e0;" vertex="1" parent="1">
          <mxGeometry x="-40" y="680" width="120" height="40" as="geometry" />
        </mxCell>
        <mxCell id="qsM-RtX6V9E53l7ONpRg-20" value="TreeSet" style="rounded=0;whiteSpace=wrap;html=1;fillColor=#dae8fc;strokeColor=#6c8ebf;gradientColor=#7ea6e0;" vertex="1" parent="1">
          <mxGeometry x="160" y="680" width="120" height="40" as="geometry" />
        </mxCell>
        <mxCell id="qsM-RtX6V9E53l7ONpRg-21" value="LinkedList" style="rounded=0;whiteSpace=wrap;html=1;fillColor=#dae8fc;strokeColor=#6c8ebf;gradientColor=#7ea6e0;" vertex="1" parent="1">
          <mxGeometry x="360" y="680" width="120" height="40" as="geometry" />
        </mxCell>
        <mxCell id="qsM-RtX6V9E53l7ONpRg-22" value="ArrayList" style="rounded=0;whiteSpace=wrap;html=1;fillColor=#dae8fc;strokeColor=#6c8ebf;gradientColor=#7ea6e0;" vertex="1" parent="1">
          <mxGeometry x="560" y="680" width="120" height="40" as="geometry" />
        </mxCell>
        <mxCell id="qsM-RtX6V9E53l7ONpRg-23" value="Vector" style="rounded=0;whiteSpace=wrap;html=1;fillColor=#dae8fc;strokeColor=#6c8ebf;gradientColor=#7ea6e0;" vertex="1" parent="1">
          <mxGeometry x="760" y="680" width="120" height="40" as="geometry" />
        </mxCell>
        <mxCell id="qsM-RtX6V9E53l7ONpRg-24" value="PriorityQueue" style="rounded=0;whiteSpace=wrap;html=1;fillColor=#dae8fc;strokeColor=#6c8ebf;gradientColor=#7ea6e0;" vertex="1" parent="1">
          <mxGeometry x="960" y="680" width="120" height="40" as="geometry" />
        </mxCell>
        <mxCell id="qsM-RtX6V9E53l7ONpRg-25" value="Stack" style="rounded=0;whiteSpace=wrap;html=1;fillColor=#dae8fc;strokeColor=#6c8ebf;gradientColor=#7ea6e0;" vertex="1" parent="1">
          <mxGeometry x="760" y="800" width="120" height="40" as="geometry" />
        </mxCell>
        <mxCell id="qsM-RtX6V9E53l7ONpRg-26" value="HashSet" style="rounded=0;whiteSpace=wrap;html=1;fillColor=#dae8fc;strokeColor=#6c8ebf;gradientColor=#7ea6e0;" vertex="1" parent="1">
          <mxGeometry x="-240" y="680" width="120" height="40" as="geometry" />
        </mxCell>
        <mxCell id="qsM-RtX6V9E53l7ONpRg-27" value="HashSet" style="rounded=0;whiteSpace=wrap;html=1;fillColor=#dae8fc;strokeColor=#6c8ebf;gradientColor=#7ea6e0;" vertex="1" parent="1">
          <mxGeometry x="1161" y="680" width="120" height="40" as="geometry" />
        </mxCell>
        <mxCell id="qsM-RtX6V9E53l7ONpRg-28" value="HashSet" style="rounded=0;whiteSpace=wrap;html=1;fillColor=#dae8fc;strokeColor=#6c8ebf;gradientColor=#7ea6e0;" vertex="1" parent="1">
          <mxGeometry x="1360" y="680" width="120" height="40" as="geometry" />
        </mxCell>
        <mxCell id="qsM-RtX6V9E53l7ONpRg-29" value="HashSet" style="rounded=0;whiteSpace=wrap;html=1;fillColor=#dae8fc;strokeColor=#6c8ebf;gradientColor=#7ea6e0;" vertex="1" parent="1">
          <mxGeometry x="1560" y="680" width="120" height="40" as="geometry" />
        </mxCell>
        <mxCell id="qsM-RtX6V9E53l7ONpRg-30" value="HashSet" style="rounded=0;whiteSpace=wrap;html=1;fillColor=#dae8fc;strokeColor=#6c8ebf;gradientColor=#7ea6e0;" vertex="1" parent="1">
          <mxGeometry x="1161" y="800" width="120" height="40" as="geometry" />
        </mxCell>
        <mxCell id="qsM-RtX6V9E53l7ONpRg-31" value="HashSet" style="rounded=0;whiteSpace=wrap;html=1;fillColor=#dae8fc;strokeColor=#6c8ebf;gradientColor=#7ea6e0;" vertex="1" parent="1">
          <mxGeometry x="1360" y="800" width="120" height="40" as="geometry" />
        </mxCell>
        <mxCell id="qsM-RtX6V9E53l7ONpRg-39" value="" style="endArrow=block;dashed=1;endFill=0;endSize=12;html=1;rounded=0;exitX=0.5;exitY=0;exitDx=0;exitDy=0;entryX=0.5;entryY=1;entryDx=0;entryDy=0;" edge="1" parent="1" source="qsM-RtX6V9E53l7ONpRg-3" target="qsM-RtX6V9E53l7ONpRg-2">
          <mxGeometry width="160" relative="1" as="geometry">
            <mxPoint x="290" y="420" as="sourcePoint" />
            <mxPoint x="450" y="420" as="targetPoint" />
          </mxGeometry>
        </mxCell>
        <mxCell id="qsM-RtX6V9E53l7ONpRg-40" value="" style="endArrow=block;dashed=1;endFill=0;endSize=12;html=1;rounded=0;exitX=0.5;exitY=0;exitDx=0;exitDy=0;entryX=0.5;entryY=1;entryDx=0;entryDy=0;" edge="1" parent="1" source="qsM-RtX6V9E53l7ONpRg-5" target="qsM-RtX6V9E53l7ONpRg-2">
          <mxGeometry width="160" relative="1" as="geometry">
            <mxPoint x="290" y="420" as="sourcePoint" />
            <mxPoint x="450" y="420" as="targetPoint" />
            <Array as="points">
              <mxPoint x="220" y="280" />
              <mxPoint x="420" y="280" />
            </Array>
          </mxGeometry>
        </mxCell>
        <mxCell id="qsM-RtX6V9E53l7ONpRg-42" value="" style="endArrow=none;dashed=1;html=1;rounded=0;exitX=0.5;exitY=0;exitDx=0;exitDy=0;" edge="1" parent="1" source="qsM-RtX6V9E53l7ONpRg-6">
          <mxGeometry width="50" height="50" relative="1" as="geometry">
            <mxPoint x="340" y="350" as="sourcePoint" />
            <mxPoint x="220" y="280" as="targetPoint" />
            <Array as="points">
              <mxPoint x="20" y="280" />
            </Array>
          </mxGeometry>
        </mxCell>
        <mxCell id="qsM-RtX6V9E53l7ONpRg-44" value="" style="endArrow=none;dashed=1;html=1;rounded=0;exitX=0.5;exitY=0;exitDx=0;exitDy=0;" edge="1" parent="1" source="qsM-RtX6V9E53l7ONpRg-9">
          <mxGeometry width="50" height="50" relative="1" as="geometry">
            <mxPoint x="30.000000000000227" y="330" as="sourcePoint" />
            <mxPoint x="420" y="280" as="targetPoint" />
            <Array as="points">
              <mxPoint x="620" y="280" />
            </Array>
          </mxGeometry>
        </mxCell>
        <mxCell id="qsM-RtX6V9E53l7ONpRg-45" value="" style="endArrow=block;dashed=1;endFill=0;endSize=12;html=1;rounded=0;exitX=0.5;exitY=0;exitDx=0;exitDy=0;entryX=0.5;entryY=1;entryDx=0;entryDy=0;" edge="1" parent="1" source="qsM-RtX6V9E53l7ONpRg-2" target="qsM-RtX6V9E53l7ONpRg-1">
          <mxGeometry width="160" relative="1" as="geometry">
            <mxPoint x="270" y="300" as="sourcePoint" />
            <mxPoint x="430" y="300" as="targetPoint" />
          </mxGeometry>
        </mxCell>
        <mxCell id="qsM-RtX6V9E53l7ONpRg-46" value="" style="endArrow=block;dashed=1;endFill=0;endSize=12;html=1;rounded=0;exitX=0.5;exitY=0;exitDx=0;exitDy=0;entryX=0.5;entryY=1;entryDx=0;entryDy=0;" edge="1" parent="1" source="qsM-RtX6V9E53l7ONpRg-7" target="qsM-RtX6V9E53l7ONpRg-6">
          <mxGeometry width="160" relative="1" as="geometry">
            <mxPoint x="430" y="210" as="sourcePoint" />
            <mxPoint x="430" y="130" as="targetPoint" />
          </mxGeometry>
        </mxCell>
        <mxCell id="qsM-RtX6V9E53l7ONpRg-47" value="" style="endArrow=block;dashed=1;endFill=0;endSize=12;html=1;rounded=0;exitX=0.5;exitY=0;exitDx=0;exitDy=0;entryX=0.5;entryY=1;entryDx=0;entryDy=0;" edge="1" parent="1" source="qsM-RtX6V9E53l7ONpRg-8" target="qsM-RtX6V9E53l7ONpRg-7">
          <mxGeometry width="160" relative="1" as="geometry">
            <mxPoint x="440" y="220" as="sourcePoint" />
            <mxPoint x="440" y="140" as="targetPoint" />
          </mxGeometry>
        </mxCell>
        <mxCell id="qsM-RtX6V9E53l7ONpRg-50" value="" style="endArrow=block;dashed=1;endFill=0;endSize=12;html=1;rounded=0;exitX=0.5;exitY=0;exitDx=0;exitDy=0;entryX=0.5;entryY=1;entryDx=0;entryDy=0;" edge="1" parent="1" source="qsM-RtX6V9E53l7ONpRg-4" target="qsM-RtX6V9E53l7ONpRg-3">
          <mxGeometry width="160" relative="1" as="geometry">
            <mxPoint x="30.000000000000227" y="570" as="sourcePoint" />
            <mxPoint x="30.000000000000227" y="490" as="targetPoint" />
          </mxGeometry>
        </mxCell>
        <mxCell id="qsM-RtX6V9E53l7ONpRg-51" value="" style="endArrow=none;dashed=1;html=1;rounded=0;exitX=0.5;exitY=0;exitDx=0;exitDy=0;" edge="1" parent="1" source="qsM-RtX6V9E53l7ONpRg-10">
          <mxGeometry width="50" height="50" relative="1" as="geometry">
            <mxPoint x="320" y="410" as="sourcePoint" />
            <mxPoint x="20" y="400" as="targetPoint" />
            <Array as="points">
              <mxPoint x="220" y="400" />
            </Array>
          </mxGeometry>
        </mxCell>
        <mxCell id="qsM-RtX6V9E53l7ONpRg-52" value="" style="endArrow=block;dashed=1;endFill=0;endSize=12;html=1;rounded=0;exitX=0.5;exitY=0;exitDx=0;exitDy=0;entryX=0.5;entryY=1;entryDx=0;entryDy=0;" edge="1" parent="1" source="qsM-RtX6V9E53l7ONpRg-21" target="qsM-RtX6V9E53l7ONpRg-4">
          <mxGeometry width="160" relative="1" as="geometry">
            <mxPoint x="430" y="450" as="sourcePoint" />
            <mxPoint x="430" y="370" as="targetPoint" />
          </mxGeometry>
        </mxCell>
        <mxCell id="qsM-RtX6V9E53l7ONpRg-53" value="" style="endArrow=none;dashed=1;html=1;rounded=0;exitX=0.5;exitY=0;exitDx=0;exitDy=0;" edge="1" parent="1" source="qsM-RtX6V9E53l7ONpRg-26">
          <mxGeometry width="50" height="50" relative="1" as="geometry">
            <mxPoint y="460" as="sourcePoint" />
            <mxPoint x="20" y="400" as="targetPoint" />
            <Array as="points">
              <mxPoint x="-180" y="400" />
            </Array>
          </mxGeometry>
        </mxCell>
        <mxCell id="qsM-RtX6V9E53l7ONpRg-54" value="" style="endArrow=block;endSize=16;endFill=0;html=1;rounded=0;exitX=0.5;exitY=0;exitDx=0;exitDy=0;entryX=0.5;entryY=1;entryDx=0;entryDy=0;" edge="1" parent="1" source="qsM-RtX6V9E53l7ONpRg-11" target="qsM-RtX6V9E53l7ONpRg-9">
          <mxGeometry width="160" relative="1" as="geometry">
            <mxPoint x="440" y="430" as="sourcePoint" />
            <mxPoint x="600" y="430" as="targetPoint" />
          </mxGeometry>
        </mxCell>
        <mxCell id="qsM-RtX6V9E53l7ONpRg-55" value="" style="endArrow=block;endSize=16;endFill=0;html=1;rounded=0;exitX=0.5;exitY=0;exitDx=0;exitDy=0;entryX=0.5;entryY=1;entryDx=0;entryDy=0;" edge="1" parent="1" source="qsM-RtX6V9E53l7ONpRg-12" target="qsM-RtX6V9E53l7ONpRg-9">
          <mxGeometry width="160" relative="1" as="geometry">
            <mxPoint x="630" y="450" as="sourcePoint" />
            <mxPoint x="630" y="370" as="targetPoint" />
            <Array as="points">
              <mxPoint x="820" y="400" />
              <mxPoint x="620" y="400" />
            </Array>
          </mxGeometry>
        </mxCell>
        <mxCell id="qsM-RtX6V9E53l7ONpRg-56" value="" style="endArrow=block;endSize=16;endFill=0;html=1;rounded=0;exitX=0.75;exitY=0;exitDx=0;exitDy=0;" edge="1" parent="1" source="qsM-RtX6V9E53l7ONpRg-10">
          <mxGeometry width="160" relative="1" as="geometry">
            <mxPoint x="630" y="450" as="sourcePoint" />
            <mxPoint x="620" y="360" as="targetPoint" />
            <Array as="points">
              <mxPoint x="250" y="400" />
              <mxPoint x="620" y="400" />
            </Array>
          </mxGeometry>
        </mxCell>
        <mxCell id="qsM-RtX6V9E53l7ONpRg-57" value="" style="endArrow=block;dashed=1;endFill=0;endSize=12;html=1;rounded=0;exitX=0.75;exitY=0;exitDx=0;exitDy=0;entryX=0.5;entryY=1;entryDx=0;entryDy=0;" edge="1" parent="1" source="qsM-RtX6V9E53l7ONpRg-11" target="qsM-RtX6V9E53l7ONpRg-5">
          <mxGeometry width="160" relative="1" as="geometry">
            <mxPoint x="30" y="450" as="sourcePoint" />
            <mxPoint x="30" y="370" as="targetPoint" />
            <Array as="points">
              <mxPoint x="650" y="390" />
              <mxPoint x="220" y="390" />
            </Array>
          </mxGeometry>
        </mxCell>
        <mxCell id="qsM-RtX6V9E53l7ONpRg-58" value="" style="endArrow=none;dashed=1;html=1;rounded=0;exitX=0.75;exitY=0;exitDx=0;exitDy=0;" edge="1" parent="1" source="qsM-RtX6V9E53l7ONpRg-12">
          <mxGeometry width="50" height="50" relative="1" as="geometry">
            <mxPoint x="500" y="460" as="sourcePoint" />
            <mxPoint x="650" y="390" as="targetPoint" />
            <Array as="points">
              <mxPoint x="850" y="390" />
            </Array>
          </mxGeometry>
        </mxCell>
        <mxCell id="qsM-RtX6V9E53l7ONpRg-62" value="" style="endArrow=none;dashed=1;html=1;rounded=0;exitX=0.25;exitY=0;exitDx=0;exitDy=0;" edge="1" parent="1" source="qsM-RtX6V9E53l7ONpRg-11">
          <mxGeometry width="50" height="50" relative="1" as="geometry">
            <mxPoint x="400" y="460" as="sourcePoint" />
            <mxPoint x="420" y="410" as="targetPoint" />
            <Array as="points">
              <mxPoint x="590" y="410" />
            </Array>
          </mxGeometry>
        </mxCell>
        <mxCell id="qsM-RtX6V9E53l7ONpRg-63" value="" style="endArrow=none;dashed=1;html=1;rounded=0;exitX=0.25;exitY=0;exitDx=0;exitDy=0;" edge="1" parent="1" source="qsM-RtX6V9E53l7ONpRg-12">
          <mxGeometry width="50" height="50" relative="1" as="geometry">
            <mxPoint x="600" y="450" as="sourcePoint" />
            <mxPoint x="590" y="410" as="targetPoint" />
            <Array as="points">
              <mxPoint x="790" y="410" />
            </Array>
          </mxGeometry>
        </mxCell>
        <mxCell id="qsM-RtX6V9E53l7ONpRg-64" value="" style="endArrow=block;endSize=16;endFill=0;html=1;rounded=0;exitX=0.5;exitY=0;exitDx=0;exitDy=0;entryX=0.5;entryY=1;entryDx=0;entryDy=0;" edge="1" parent="1" source="qsM-RtX6V9E53l7ONpRg-13" target="qsM-RtX6V9E53l7ONpRg-11">
          <mxGeometry width="160" relative="1" as="geometry">
            <mxPoint x="630" y="450" as="sourcePoint" />
            <mxPoint x="630" y="370" as="targetPoint" />
            <Array as="points">
              <mxPoint x="520" y="520" />
              <mxPoint x="620" y="520" />
            </Array>
          </mxGeometry>
        </mxCell>
        <mxCell id="qsM-RtX6V9E53l7ONpRg-65" value="" style="endArrow=block;endSize=16;endFill=0;html=1;rounded=0;exitX=0.5;exitY=0;exitDx=0;exitDy=0;" edge="1" parent="1" source="qsM-RtX6V9E53l7ONpRg-22">
          <mxGeometry width="160" relative="1" as="geometry">
            <mxPoint x="530" y="570" as="sourcePoint" />
            <mxPoint x="620" y="480" as="targetPoint" />
            <Array as="points">
              <mxPoint x="620" y="600" />
            </Array>
          </mxGeometry>
        </mxCell>
        <mxCell id="qsM-RtX6V9E53l7ONpRg-66" value="" style="endArrow=block;endSize=16;endFill=0;html=1;rounded=0;exitX=0.5;exitY=0;exitDx=0;exitDy=0;" edge="1" parent="1" source="qsM-RtX6V9E53l7ONpRg-23">
          <mxGeometry width="160" relative="1" as="geometry">
            <mxPoint x="630" y="690" as="sourcePoint" />
            <mxPoint x="620" y="480" as="targetPoint" />
            <Array as="points">
              <mxPoint x="820" y="600" />
              <mxPoint x="620" y="600" />
            </Array>
          </mxGeometry>
        </mxCell>
        <mxCell id="qsM-RtX6V9E53l7ONpRg-67" value="" style="endArrow=block;endSize=16;endFill=0;html=1;rounded=0;exitX=0.5;exitY=0;exitDx=0;exitDy=0;entryX=0.5;entryY=1;entryDx=0;entryDy=0;" edge="1" parent="1" source="qsM-RtX6V9E53l7ONpRg-24" target="qsM-RtX6V9E53l7ONpRg-12">
          <mxGeometry width="160" relative="1" as="geometry">
            <mxPoint x="830" y="690" as="sourcePoint" />
            <mxPoint x="630" y="490" as="targetPoint" />
            <Array as="points">
              <mxPoint x="1020" y="600" />
              <mxPoint x="1020" y="560" />
              <mxPoint x="820" y="560" />
            </Array>
          </mxGeometry>
        </mxCell>
        <mxCell id="qsM-RtX6V9E53l7ONpRg-68" value="" style="endArrow=block;endSize=16;endFill=0;html=1;rounded=0;exitX=0.75;exitY=0;exitDx=0;exitDy=0;entryX=0.5;entryY=1;entryDx=0;entryDy=0;" edge="1" parent="1" source="qsM-RtX6V9E53l7ONpRg-21" target="qsM-RtX6V9E53l7ONpRg-13">
          <mxGeometry width="160" relative="1" as="geometry">
            <mxPoint x="630" y="450" as="sourcePoint" />
            <mxPoint x="630" y="370" as="targetPoint" />
            <Array as="points">
              <mxPoint x="450" y="640" />
              <mxPoint x="520" y="640" />
            </Array>
          </mxGeometry>
        </mxCell>
        <mxCell id="qsM-RtX6V9E53l7ONpRg-69" value="" style="endArrow=block;endSize=16;endFill=0;html=1;rounded=0;exitX=0.5;exitY=0;exitDx=0;exitDy=0;entryX=0.5;entryY=1;entryDx=0;entryDy=0;" edge="1" parent="1" source="qsM-RtX6V9E53l7ONpRg-25" target="qsM-RtX6V9E53l7ONpRg-23">
          <mxGeometry width="160" relative="1" as="geometry">
            <mxPoint x="630" y="450" as="sourcePoint" />
            <mxPoint x="630" y="370" as="targetPoint" />
          </mxGeometry>
        </mxCell>
        <mxCell id="qsM-RtX6V9E53l7ONpRg-70" value="" style="endArrow=block;endSize=16;endFill=0;html=1;rounded=0;exitX=0.5;exitY=0;exitDx=0;exitDy=0;entryX=0.5;entryY=1;entryDx=0;entryDy=0;" edge="1" parent="1" source="qsM-RtX6V9E53l7ONpRg-20" target="qsM-RtX6V9E53l7ONpRg-10">
          <mxGeometry width="160" relative="1" as="geometry">
            <mxPoint x="630" y="690" as="sourcePoint" />
            <mxPoint x="630" y="490" as="targetPoint" />
            <Array as="points" />
          </mxGeometry>
        </mxCell>
        <mxCell id="qsM-RtX6V9E53l7ONpRg-71" value="" style="endArrow=block;dashed=1;endFill=0;endSize=12;html=1;rounded=0;exitX=0.25;exitY=0;exitDx=0;exitDy=0;entryX=0.5;entryY=1;entryDx=0;entryDy=0;" edge="1" parent="1" source="qsM-RtX6V9E53l7ONpRg-20" target="qsM-RtX6V9E53l7ONpRg-8">
          <mxGeometry width="160" relative="1" as="geometry">
            <mxPoint x="430" y="690" as="sourcePoint" />
            <mxPoint x="430" y="490" as="targetPoint" />
            <Array as="points">
              <mxPoint x="190" y="640" />
              <mxPoint x="20" y="640" />
            </Array>
          </mxGeometry>
        </mxCell>
        <mxCell id="qsM-RtX6V9E53l7ONpRg-72" value="" style="endArrow=none;dashed=1;html=1;rounded=0;exitX=0.5;exitY=0;exitDx=0;exitDy=0;" edge="1" parent="1" source="qsM-RtX6V9E53l7ONpRg-19">
          <mxGeometry width="50" height="50" relative="1" as="geometry">
            <mxPoint x="200" y="560" as="sourcePoint" />
            <mxPoint x="-180" y="650" as="targetPoint" />
            <Array as="points">
              <mxPoint x="20" y="650" />
            </Array>
          </mxGeometry>
        </mxCell>
      </root>
    </mxGraphModel>
  </diagram>
</mxfile>
